PathFileType	4	(X/Y/Z)	c:/Users/goper/Files/vsCode/490R/osim_files/A03/A03_Fast_06.trc
DataRate	CameraRate	NumFrames	NumMarkers	Units                	OrigDataRate	OrigDataStartFrame	OrigNumFrames
250.00	250.00	7	36	mm	250.0	1609	2145
                Frame#	Time	LPSIS			LASIS			LTH1			LTH2			LTH3			LTH4			LLFE			LMFE			LSH1			LSH2			LSH3			LSH4			LLMAL			LMMAL			LCAL			LMTP5			LTOE			LMTP1			RPSIS			RASIS			RTH1			RTH2			RTH3			RTH4			RLFE			RMFE			RSH1			RSH2			RSH3			RSH4			RLMAL			RMMAL			RCAL			RMTP1			RTOE			RMTP5		
		X1	Y1	Z1	X2	Y2	Z2	X3	Y3	Z3	X4	Y4	Z4	X5	Y5	Z5	X6	Y6	Z6	X7	Y7	Z7	X8	Y8	Z8	X9	Y9	Z9	X10	Y10	Z10	X11	Y11	Z11	X12	Y12	Z12	X13	Y13	Z13	X14	Y14	Z14	X15	Y15	Z15	X16	Y16	Z16	X17	Y17	Z17	X18	Y18	Z18	X19	Y19	Z19	X20	Y20	Z20	X21	Y21	Z21	X22	Y22	Z22	X23	Y23	Z23	X24	Y24	Z24	X25	Y25	Z25	X26	Y26	Z26	X27	Y27	Z27	X28	Y28	Z28	X29	Y29	Z29	X30	Y30	Z30	X31	Y31	Z31	X32	Y32	Z32	X33	Y33	Z33	X34	Y34	Z34	X35	Y35	Z35	X36	Y36	Z36

1609	6.43200	-3443.00342	1039.77856	249.30255	0.00000	0.00000	0.00000	-3760.04248	624.12677	381.03510	-3786.29126	590.01953	376.26697	-3808.22607	652.62793	355.03467	-3823.74927	612.05792	351.43176	-3782.22681	545.43091	366.49979	-3799.86426	553.76343	209.70663	-3760.19946	450.05157	357.67786	-3773.86914	403.94226	353.41003	-3819.68872	461.14417	352.64294	-3825.49829	414.87534	346.08319	-3851.80347	99.93355	302.28012	0.00000	0.00000	0.00000	-3775.40771	84.81493	250.95738	0.00000	0.00000	0.00000	0.00000	0.00000	0.00000	-4001.81763	68.68179	192.42076	-3440.53247	1050.79492	165.90880	-3658.89575	926.57410	58.25610	0.00000	0.00000	0.00000	-3465.66553	546.46857	25.74742	-3533.17554	571.49445	17.67039	-3516.46484	529.87158	24.10728	-3476.29443	507.92227	37.14175	0.00000	0.00000	0.00000	-3398.17236	478.66855	45.66833	-3370.88232	446.13092	37.61794	-3444.11841	435.59210	36.44514	0.00000	0.00000	0.00000	-3196.23071	183.81627	104.18515	0.00000	0.00000	0.00000	-3126.31250	172.51611	166.32430	-3298.70264	55.25716	220.66077	-3329.56274	67.95182	173.94272	-3286.49341	47.82190	106.45750
1610	6.43600	-3448.48608	1040.41028	248.68552	0.00000	0.00000	0.00000	-3764.75708	625.14807	382.30890	-3790.97290	590.98572	377.84375	-3813.24780	653.46368	356.80301	-3828.69702	612.84943	353.45679	-3787.58447	545.95099	368.08722	-3805.32275	554.51611	211.35158	-3764.46948	450.74832	358.97623	-3777.67896	404.52737	354.52783	-3824.10376	461.22717	354.00375	-3829.41504	414.96100	347.28897	-3851.89380	99.86425	302.33795	0.00000	0.00000	0.00000	-3775.51367	84.88950	250.98077	0.00000	0.00000	0.00000	0.00000	0.00000	0.00000	-4001.82715	68.50681	192.47293	-3446.18921	1051.35181	165.44164	-3665.08691	927.61548	58.51733	0.00000	0.00000	0.00000	-3473.74023	546.69855	24.55041	-3542.12402	571.82031	16.08818	-3525.55981	530.11304	22.38369	0.00000	0.00000	0.00000	0.00000	0.00000	0.00000	-3408.17163	479.46695	44.24580	-3380.65308	447.65598	35.18424	-3452.92847	436.24524	34.67548	0.00000	0.00000	0.00000	-3202.35205	186.94109	102.52586	0.00000	0.00000	0.00000	-3132.45898	178.62332	164.68552	-3299.10864	55.09964	220.60262	-3331.31372	67.21851	173.79779	-3287.73608	47.99671	106.18739
1611	6.44000	-3453.72266	1041.12488	248.12770	0.00000	0.00000	0.00000	-3769.36377	626.19586	383.65479	-3795.48145	591.89838	379.55463	-3818.13965	654.24847	358.77130	-3833.50195	613.58569	355.69205	-3792.87476	546.37964	369.73300	-3810.57886	555.18988	213.02216	-3767.66064	451.52194	359.51340	-3780.52466	405.20767	355.48264	-3828.45532	461.25400	355.37195	-3833.32227	415.06183	348.55484	-3851.91821	99.80875	302.46252	0.00000	0.00000	0.00000	-3775.55835	84.98206	251.12740	0.00000	0.00000	0.00000	0.00000	0.00000	0.00000	-4001.95703	68.56842	192.63548	-3451.85986	1051.86340	165.00206	-3671.22534	928.68213	58.80438	0.00000	0.00000	0.00000	-3483.23926	546.55670	22.67541	-3551.19629	572.13519	14.58277	-3534.83472	530.37720	20.74172	0.00000	0.00000	0.00000	0.00000	0.00000	0.00000	-3417.54224	480.39136	42.09464	-3389.81616	448.83804	32.99518	-3461.81299	436.86368	32.99919	0.00000	0.00000	0.00000	-3208.87573	190.18239	100.69676	0.00000	0.00000	0.00000	-3138.92041	184.88263	162.94063	-3301.51465	56.82177	219.96069	-3332.95508	67.03951	173.46654	-3286.90308	48.05495	106.42672
1612	6.44400	-3459.46021	1041.75745	247.65141	0.00000	0.00000	0.00000	-3773.79443	627.08496	385.00021	-3799.85791	592.70093	381.27228	-3822.83862	654.94458	360.78879	-3838.17749	614.25922	357.97800	-3798.11572	546.84583	371.47406	-3815.68994	555.79456	214.71609	-3773.04614	452.09317	361.82733	-3784.20923	405.70416	356.75720	-3832.68066	461.27960	356.77994	-3837.07471	415.08942	349.83374	-3854.66797	100.19078	304.36676	0.00000	0.00000	0.00000	-3775.63354	85.07666	251.33836	0.00000	0.00000	0.00000	0.00000	0.00000	0.00000	-4001.90259	68.50120	192.76512	-3457.29858	1052.32129	164.61768	-3677.38403	929.82452	59.12039	0.00000	0.00000	0.00000	-3492.61719	546.61591	21.01340	-3560.43701	572.48608	13.12921	-3544.21802	530.59790	19.21844	0.00000	0.00000	0.00000	0.00000	0.00000	0.00000	-3427.17749	481.33255	40.00320	-3399.13940	450.00198	30.91255	-3470.96558	437.49399	31.40317	0.00000	0.00000	0.00000	-3216.74878	193.07071	98.87128	0.00000	0.00000	0.00000	-3145.59375	191.14426	160.94400	-3302.29492	57.31038	219.57628	-3334.99219	66.59930	172.88864	-3288.30591	48.21892	105.80055
1613	6.44800	-3465.57788	1041.81189	247.76857	0.00000	0.00000	0.00000	-3778.09985	627.86511	386.47607	-3804.13013	593.40588	383.01489	-3827.38232	655.60052	362.77890	-3842.69214	614.88489	360.18454	-3803.05273	547.16882	373.14825	-3820.68335	556.32642	216.43106	-3777.90942	452.29974	364.24100	-3787.77344	406.23273	358.08725	-3836.75415	461.25159	358.23914	-3840.68091	415.06677	351.12949	-3851.96582	99.37978	302.90753	0.00000	0.00000	0.00000	-3775.76807	85.23895	251.58971	0.00000	0.00000	0.00000	0.00000	0.00000	0.00000	-4002.00586	68.44356	193.00020	-3463.14771	1052.54919	164.53619	-3683.58081	931.01996	59.41242	0.00000	0.00000	0.00000	-3502.16650	546.64136	19.45331	-3569.83252	572.81708	11.77024	-3553.77832	530.85089	17.75368	0.00000	0.00000	0.00000	0.00000	0.00000	0.00000	-3437.01807	482.30548	37.91041	-3407.50342	451.30991	28.63047	-3480.23486	438.08188	29.95321	0.00000	0.00000	0.00000	-3223.47168	196.50478	97.08984	0.00000	0.00000	0.00000	-3152.45630	197.59622	158.79147	-3304.02637	58.76846	218.83389	-3336.85791	66.35835	172.11090	-3289.70557	48.46418	105.13991
1614	6.45200	-3470.28027	1042.90381	246.52431	0.00000	0.00000	0.00000	-3782.42529	628.51025	388.10733	-3808.37695	593.99634	384.81137	-3831.77173	656.11584	364.68039	-3847.03320	615.37463	362.20007	-3804.00781	545.09210	372.43640	-3825.60083	556.82062	218.13933	-3780.81860	453.08997	364.64435	-3790.88696	406.62726	358.72269	-3840.62012	461.17999	359.68866	-3844.15430	415.04184	352.48007	-3852.10693	99.23000	303.15067	0.00000	0.00000	0.00000	-3776.21606	86.06725	251.86790	0.00000	0.00000	0.00000	0.00000	0.00000	0.00000	-4002.20825	68.31083	193.31276	-3468.21094	1053.34546	163.45918	-3689.78003	932.24567	59.69244	0.00000	0.00000	0.00000	-3511.78638	546.70660	18.00797	-3579.39917	573.22864	10.53300	-3563.58691	531.18738	16.38572	0.00000	0.00000	0.00000	0.00000	0.00000	0.00000	-3446.88110	483.24905	36.00248	0.00000	0.00000	0.00000	-3489.65503	438.62503	28.60374	0.00000	0.00000	0.00000	-3230.49365	200.06223	95.25730	0.00000	0.00000	0.00000	-3159.69946	204.20676	156.49702	-3305.73242	60.41933	218.17642	-3338.76221	66.20420	171.44713	-3291.19458	48.86506	104.54007
1615	6.45600	-3475.56226	1043.45508	245.97588	0.00000	0.00000	0.00000	-3786.59448	629.01569	389.76068	-3812.41821	594.40179	386.54755	-3836.01807	656.49384	366.53577	-3851.18311	615.70679	364.11118	-3812.24438	547.62469	376.49597	-3830.44507	557.29077	219.84369	-3784.58472	453.63214	366.07083	-3794.44995	407.00861	360.62207	-3844.32617	461.11499	361.14252	-3847.42822	414.98285	353.77823	-3852.23438	99.10209	303.38736	0.00000	0.00000	0.00000	-3776.43359	86.22598	252.02625	0.00000	0.00000	0.00000	0.00000	0.00000	0.00000	-4002.47681	68.13167	193.60933	-3473.70605	1053.74512	163.14555	-3695.99609	933.49939	60.05908	0.00000	0.00000	0.00000	-3521.69653	546.77643	16.59465	-3589.09204	573.61621	9.31231	-3573.47510	531.48914	15.10877	0.00000	0.00000	0.00000	0.00000	0.00000	0.00000	-3454.71338	483.71133	37.00520	0.00000	0.00000	0.00000	-3499.15747	439.08926	27.28852	0.00000	0.00000	0.00000	-3237.84937	203.82771	92.81961	0.00000	0.00000	0.00000	-3167.09546	210.98283	154.09071	-3307.61304	62.31643	217.47751	-3340.83228	66.25381	170.72763	-3292.95825	49.58935	103.84312
